<?xml version="1.0" standalone="no"?>
<!DOCTYPE svg PUBLIC "-//W3C//DTD SVG 20010904//EN"
 "http://www.w3.org/TR/2001/REC-SVG-20010904/DTD/svg10.dtd">
<svg version="1.0" xmlns="http://www.w3.org/2000/svg"
 width="97.000000pt" height="58.000000pt" viewBox="0 0 97.000000 58.000000"
 preserveAspectRatio="xMidYMid meet">

<g transform="translate(0.000000,58.000000) scale(0.100000,-0.100000)"
fill="#000000" stroke="none">
<path d="M442 473 c87 -2 229 -2 316 0 86 1 15 3 -158 3 -173 0 -244 -2 -158
-3z"/>
<path d="M260 430 c0 -6 124 -10 351 -10 231 0 348 3 344 10 -4 6 -132 10
-351 10 -223 0 -344 -4 -344 -10z"/>
<path d="M230 383 c0 -5 159 -8 354 -8 195 0 358 3 362 8 4 4 -155 7 -354 7
-199 0 -362 -3 -362 -7z"/>
<path d="M205 340 c-4 -6 28 -10 89 -10 57 0 96 4 96 10 0 6 -36 10 -89 10
-50 0 -93 -4 -96 -10z"/>
<path d="M735 340 c-4 -6 28 -10 89 -10 57 0 96 4 96 10 0 6 -36 10 -89 10
-50 0 -93 -4 -96 -10z"/>
<path d="M176 295 c-4 -13 9 -15 88 -15 74 0 95 3 100 15 4 13 -9 15 -88 15
-74 0 -95 -3 -100 -15z"/>
<path d="M706 295 c-4 -13 9 -15 88 -15 74 0 95 3 100 15 4 13 -9 15 -88 15
-74 0 -95 -3 -100 -15z"/>
<path d="M96 164 c-36 -58 -66 -107 -66 -110 0 -2 144 -4 320 -4 354 0 360 1
421 67 26 27 99 137 99 148 0 3 -40 5 -88 5 l-88 0 -40 -57 -39 -58 -168 -3
c-92 -1 -167 1 -167 5 0 5 14 28 30 53 16 25 30 48 30 53 0 4 -40 7 -89 7
l-90 0 -65 -106z"/>
<path d="M895 173 c-33 -53 -64 -103 -68 -110 -6 -10 8 -13 68 -13 l75 0 0
110 c0 61 -4 110 -8 110 -4 0 -35 -44 -67 -97z"/>
</g>
</svg>
